<svg width="25" height="24" viewBox="0 0 25 24" fill="none" xmlns="http://www.w3.org/2000/svg">
<path d="M5.5 11C4.95 11 4.479 10.804 4.087 10.412C3.69567 10.0207 3.5 9.55 3.5 9V5C3.5 4.45 3.69567 3.979 4.087 3.587C4.479 3.19567 4.95 3 5.5 3H9.5C10.05 3 10.521 3.19567 10.913 3.587C11.3043 3.979 11.5 4.45 11.5 5V9C11.5 9.55 11.3043 10.0207 10.913 10.412C10.521 10.804 10.05 11 9.5 11H5.5ZM5.5 21C4.95 21 4.479 20.8043 4.087 20.413C3.69567 20.021 3.5 19.55 3.5 19V15C3.5 14.45 3.69567 13.979 4.087 13.587C4.479 13.1957 4.95 13 5.5 13H9.5C10.05 13 10.521 13.1957 10.913 13.587C11.3043 13.979 11.5 14.45 11.5 15V19C11.5 19.55 11.3043 20.021 10.913 20.413C10.521 20.8043 10.05 21 9.5 21H5.5ZM15.5 11C14.95 11 14.4793 10.804 14.088 10.412C13.696 10.0207 13.5 9.55 13.5 9V5C13.5 4.45 13.696 3.979 14.088 3.587C14.4793 3.19567 14.95 3 15.5 3H19.5C20.05 3 20.521 3.19567 20.913 3.587C21.3043 3.979 21.5 4.45 21.5 5V9C21.5 9.55 21.3043 10.0207 20.913 10.412C20.521 10.804 20.05 11 19.5 11H15.5ZM15.5 21C14.95 21 14.4793 20.8043 14.088 20.413C13.696 20.021 13.5 19.55 13.5 19V15C13.5 14.45 13.696 13.979 14.088 13.587C14.4793 13.1957 14.95 13 15.5 13H19.5C20.05 13 20.521 13.1957 20.913 13.587C21.3043 13.979 21.5 14.45 21.5 15V19C21.5 19.55 21.3043 20.021 20.913 20.413C20.521 20.8043 20.05 21 19.5 21H15.5Z" fill="black"/>
</svg>
