<svg width="24" height="24" viewBox="0 0 24 24" fill="none" xmlns="http://www.w3.org/2000/svg">
<path d="M12 6.85601e-06C18.6276 6.85601e-06 24 5.37241 24 12C24 18.6276 18.6276 24 12 24C5.3724 24 0 18.6276 0 12H2.4C2.40018 14.2575 3.19591 16.4427 4.6474 18.1717C6.09888 19.9007 8.11325 21.0629 10.3366 21.454C12.5599 21.8452 14.85 21.4403 16.8044 20.3105C18.7589 19.1807 20.2526 17.3983 21.0233 15.2765C21.7939 13.1546 21.7922 10.829 21.0183 8.7083C20.2444 6.58761 18.7479 4.80747 16.7918 3.68066C14.8356 2.55386 12.5449 2.15246 10.3222 2.54701C8.09945 2.94155 6.08685 4.1068 4.638 5.83801L7.2 8.4H0V1.20001L2.9364 4.13521C4.06171 2.83564 5.45368 1.79366 7.01766 1.0801C8.58164 0.36655 10.2809 -0.00183275 12 6.85601e-06ZM13.2 6.00001V11.502L17.0916 15.3936L15.3936 17.0916L10.8 12.4956V6.00001H13.2Z" fill="black"/>
</svg>
