<svg width="25" height="24" viewBox="0 0 25 24" fill="none" xmlns="http://www.w3.org/2000/svg">
<circle cx="12.5" cy="12" r="12" fill="#48B553"/>
<path d="M12.5 6.23999C13.2638 6.23999 13.9964 6.54342 14.5365 7.08352C15.0766 7.62363 15.38 8.35617 15.38 9.11999C15.38 9.88381 15.0766 10.6164 14.5365 11.1565C13.9964 11.6966 13.2638 12 12.5 12C11.7362 12 11.0036 11.6966 10.4635 11.1565C9.92342 10.6164 9.61999 9.88381 9.61999 9.11999C9.61999 8.35617 9.92342 7.62363 10.4635 7.08352C11.0036 6.54342 11.7362 6.23999 12.5 6.23999ZM12.5 13.44C15.6824 13.44 18.26 14.7288 18.26 16.32V17.76H6.73999V16.32C6.73999 14.7288 9.31759 13.44 12.5 13.44Z" fill="#D6F3D9"/>
</svg>
